<svg version="1.1" id="Layer_1" xmlns="http://www.w3.org/2000/svg" xmlns:xlink="http://www.w3.org/1999/xlink" x="0px" y="0px"
	 width="100%" viewBox="0 0 112 85" enable-background="new 0 0 112 85" xml:space="preserve">
<path fill="#D65151" opacity="1.000000" stroke="none" 
	d="
M75.000000,1.000000 
	C75.000000,1.000000 75.500000,1.000000 75.920937,1.356669 
	C81.123901,2.956876 86.107384,3.701204 90.651314,5.534791 
	C106.108459,11.772129 112.902115,26.857748 106.330666,41.441891 
	C103.937134,46.753883 99.319710,51.063812 95.463058,56.166817 
	C100.853256,56.166817 106.413399,56.166817 111.979111,56.624908 
	C111.989777,66.722000 111.994888,76.361000 112.000000,86.000000 
	C97.979103,86.000000 83.958214,86.000000 69.406082,85.666954 
	C60.229794,77.198746 51.584747,69.063583 42.361698,60.384510 
	C52.940643,59.638252 52.940643,59.638252 52.333504,56.407303 
	C45.917793,56.407303 39.536591,56.407303 33.265881,56.407303 
	C33.265881,62.421024 33.265881,68.025223 33.265881,73.690903 
	C34.926201,73.690903 36.318489,73.690903 38.244732,73.690903 
	C38.244732,70.376221 38.244732,67.338570 38.244732,63.255028 
	C47.051189,71.346344 55.025593,78.673172 63.000000,86.000000 
	C42.979103,86.000000 22.958210,86.000000 2.467901,85.531342 
	C2.027627,75.425682 2.056767,65.788681 2.537945,56.094879 
	C6.232489,56.038078 9.474994,56.038078 12.610880,56.038078 
	C12.610880,47.779522 12.610880,40.372425 12.610880,32.767597 
	C8.838423,32.531754 5.381667,32.315651 1.944171,31.624714 
	C1.976690,23.153309 2.138090,15.153052 1.939486,7.161741 
	C1.843024,3.280363 3.181135,1.864908 7.120325,1.934575 
	C17.111998,2.111284 27.109791,1.942029 37.398117,2.070909 
	C46.581383,10.417877 55.471672,18.605244 64.361954,26.792610 
	C64.129967,27.189478 63.897968,27.586348 63.665977,27.983215 
	C60.937763,27.983215 58.209545,27.983215 55.271938,27.983215 
	C55.271938,29.825903 55.271938,31.206497 55.271938,32.673355 
	C61.910099,32.673355 68.290352,32.673355 74.993591,32.673355 
	C74.993591,27.392103 75.165070,22.420841 74.868004,17.477737 
	C74.797401,16.303068 73.158035,15.222676 72.240257,14.098921 
	C71.495613,15.155122 70.270882,16.142227 70.106850,17.281986 
	C69.771492,19.612167 70.006317,22.024410 70.006317,25.564775 
	C60.998421,17.094671 52.972851,9.548243 45.419273,1.996212 
	C53.373623,1.988765 60.857170,2.060506 68.337616,1.939944 
	C70.562881,1.904080 72.779449,1.328359 75.000000,1.000000 
z"/>
<path fill="#FFFDFD" opacity="1.000000" stroke="none" 
	d="
M111.973549,56.166817 
	C106.413399,56.166817 100.853256,56.166817 95.463058,56.166817 
	C99.319710,51.063812 103.937134,46.753883 106.330666,41.441891 
	C112.902115,26.857748 106.108459,11.772129 90.651314,5.534791 
	C86.107384,3.701204 81.123901,2.956876 76.170937,1.356669 
	C88.274384,1.000000 100.548775,1.000000 113.000000,1.000000 
	C113.000000,19.020510 113.000000,37.041595 112.739586,55.549675 
	C112.310638,56.080044 112.142097,56.123428 111.973549,56.166817 
z"/>
<path fill="#FFFFFF" opacity="1.000000" stroke="none" 
	d="
M44.947277,2.001815 
	C52.972851,9.548243 60.998421,17.094671 70.006317,25.564775 
	C70.006317,22.024410 69.771492,19.612167 70.106850,17.281986 
	C70.270882,16.142227 71.495613,15.155122 72.240257,14.098921 
	C73.158035,15.222676 74.797401,16.303068 74.868004,17.477737 
	C75.165070,22.420841 74.993591,27.392103 74.993591,32.673355 
	C68.290352,32.673355 61.910099,32.673355 55.271938,32.673355 
	C55.271938,31.206497 55.271938,29.825903 55.271938,27.983215 
	C58.209545,27.983215 60.937763,27.983215 63.665977,27.983215 
	C63.897968,27.586348 64.129967,27.189478 64.361954,26.792610 
	C55.471672,18.605244 46.581383,10.417877 37.360596,1.844379 
	C37.030090,1.458247 37.000000,1.000000 37.000000,1.000000 
	C39.041668,1.000000 41.083332,1.000000 43.633530,1.237357 
	C44.324112,1.782331 44.592518,1.958031 44.947277,2.001815 
z"/>
<path fill="#FFFFFF" opacity="1.000000" stroke="none" 
	d="
M63.428463,86.000000 
	C55.025593,78.673172 47.051189,71.346344 38.244732,63.255028 
	C38.244732,67.338570 38.244732,70.376221 38.244732,73.690903 
	C36.318489,73.690903 34.926201,73.690903 33.265881,73.690903 
	C33.265881,68.025223 33.265881,62.421024 33.265881,56.407303 
	C39.536591,56.407303 45.917793,56.407303 52.333504,56.407303 
	C52.940643,59.638252 52.940643,59.638252 42.361698,60.384510 
	C51.584747,69.063583 60.229794,77.198746 68.937424,85.666954 
	C67.285645,86.000000 65.571281,86.000000 63.428463,86.000000 
z"/>
<path fill="#FEFAFA" opacity="1.000000" stroke="none" 
	d="
M1.924910,32.099545 
	C5.381667,32.315651 8.838423,32.531754 12.610880,32.767597 
	C12.610880,40.372425 12.610880,47.779522 12.610880,56.038078 
	C9.474994,56.038078 6.232489,56.038078 2.268449,56.042778 
	C1.364610,56.031651 1.182305,56.015827 1.000000,56.000000 
	C1.000000,48.312424 1.000000,40.624847 1.222478,32.574821 
	C1.444956,32.212368 1.924910,32.099545 1.924910,32.099545 
z"/>
<path fill="#E59292" opacity="1.000000" stroke="none" 
	d="
M1.944171,31.624714 
	C1.924910,32.099545 1.444956,32.212368 1.222478,32.106186 
	C1.000000,21.734621 1.000000,11.469244 1.000000,1.000000 
	C12.686771,1.000000 24.374727,1.000000 36.531342,1.000000 
	C37.000000,1.000000 37.030090,1.458247 37.067612,1.684777 
	C27.109791,1.942029 17.111998,2.111284 7.120325,1.934575 
	C3.181135,1.864908 1.843024,3.280363 1.939486,7.161741 
	C2.138090,15.153052 1.976690,23.153309 1.944171,31.624714 
z"/>
<path fill="#E69494" opacity="1.000000" stroke="none" 
	d="
M45.419273,1.996212 
	C44.592518,1.958031 44.324112,1.782331 44.071030,1.237357 
	C54.020893,1.000000 64.041786,1.000000 74.531342,1.000000 
	C72.779449,1.328359 70.562881,1.904080 68.337616,1.939944 
	C60.857170,2.060506 53.373623,1.988765 45.419273,1.996212 
z"/>
<path fill="#E59292" opacity="1.000000" stroke="none" 
	d="
M1.000000,56.468658 
	C1.182305,56.015827 1.364610,56.031651 1.816411,56.099575 
	C2.056767,65.788681 2.027627,75.425682 1.999243,85.531342 
	C1.666666,85.347672 1.047698,84.697357 1.043077,84.042709 
	C0.979303,75.007927 1.000000,65.972549 1.000000,56.468658 
z"/>
<path fill="#DB6767" opacity="1.000000" stroke="none" 
	d="
M111.979111,56.624908 
	C112.142097,56.123428 112.310638,56.080044 112.739586,56.018333 
	C113.000000,66.000000 113.000000,76.000000 112.500000,86.000000 
	C111.994888,76.361000 111.989777,66.722000 111.979111,56.624908 
z"/>
</svg>